<?xml version="1.0" encoding="UTF-8"?>
<svg id="Layer_2" data-name="Layer 2" xmlns="http://www.w3.org/2000/svg" viewBox="0 0 80.49 76.56">
  <defs>
    <style>
      .cls-1 {
        fill: #fff;
      }

      .cls-2 {
        fill: #f99e1c;
      }
    </style>
  </defs>
  <g id="Layer_1-2" data-name="Layer 1">
    <g>
      <path class="cls-1" d="m67.9,19.84c0,9.1-15.17,42.75-24.26,42.75S11.02,26.66,11.02,17.56,42.33,3.37,51.43,3.37s16.47,7.38,16.47,16.47Z"/>
      <path class="cls-2" d="m0,6.85c5.2,27.71,19.76,52.07,40.25,69.71,21.4-18.36,35.21-43.15,40.25-69.71C53.89-2.5,25.52-2.07,0,6.85m41.15,39.59s-.02,0-.03.01c1.52,1.23,3.15,2.37,4.87,3.4.76.45,3.03,1.81,3.03,1.81l-4.45,7.46s-5.36-2.88-8.46-6.28c-8.01-8.78-10.98-18.86-10.5-30.16,0,0,0-.02,0-.03-1.83.7-3.63,1.54-5.38,2.52-.77.43-3.08,1.72-3.08,1.72l-4.24-7.58s5.17-3.2,9.67-4.18c11.61-2.55,21.82-.08,31.37,5.99,0,0,.02,0,.03.02.31-1.93.48-3.91.51-5.92.01-.88.05-3.53.05-3.53l8.69.12s.18,6.08-1.21,10.46c-3.6,11.33-10.84,18.94-20.87,24.17Z"/>
      <path class="cls-2" d="m26.7,22.27h0c1.7,8.94,6.34,17.29,13.55,23.47h0c6.9-5.94,11.8-14.14,13.55-23.46h0c-8.59-3-18.14-3.15-27.1,0"/>
    </g>
  </g>
</svg>