<?xml version="1.0" encoding="UTF-8"?>
<svg id="Layer_2" data-name="Layer 2" xmlns="http://www.w3.org/2000/svg" viewBox="0 0 281.04 76.56">
  <defs>
    <style>
      .cls-1 {
        fill: #fff;
      }

      .cls-2 {
        fill: #f99e1c;
      }

      .cls-3 {
        fill: #231f20;
      }
    </style>
  </defs>
  <g id="Layer_1-2" data-name="Layer 1">
    <g>
      <path class="cls-1" d="m67.9,19.84c0,9.1-15.17,42.75-24.26,42.75S11.02,26.66,11.02,17.56,42.33,3.37,51.43,3.37s16.47,7.38,16.47,16.47Z"/>
      <path class="cls-2" d="m0,6.85c5.2,27.71,19.76,52.07,40.25,69.71,21.4-18.36,35.21-43.15,40.25-69.71C53.89-2.5,25.52-2.07,0,6.85m41.15,39.59s-.02,0-.03.01c1.52,1.23,3.15,2.37,4.87,3.4.76.45,3.03,1.81,3.03,1.81l-4.45,7.46s-5.36-2.88-8.46-6.28c-8.01-8.78-10.98-18.86-10.5-30.16,0,0,0-.02,0-.03-1.83.7-3.63,1.54-5.38,2.52-.77.43-3.08,1.72-3.08,1.72l-4.24-7.58s5.17-3.2,9.67-4.18c11.61-2.55,21.82-.08,31.37,5.99,0,0,.02,0,.03.02.31-1.93.48-3.91.51-5.92.01-.88.05-3.53.05-3.53l8.69.12s.18,6.08-1.21,10.46c-3.6,11.33-10.84,18.94-20.87,24.17Z"/>
      <path class="cls-2" d="m26.7,22.27h0c1.7,8.94,6.34,17.29,13.55,23.47h0c6.9-5.94,11.8-14.14,13.55-23.46h0c-8.59-3-18.14-3.15-27.1,0"/>
      <polyline class="cls-3" points="86.39 29.5 86.39 24.5 108.57 24.5 108.57 29.5 100.46 29.5 100.46 51.57 94.5 51.57 94.5 29.5 86.39 29.5"/>
      <path class="cls-3" d="m107.02,37.52c.48-1.28,1.16-2.36,2.05-3.26.89-.9,1.95-1.59,3.19-2.09,1.24-.49,2.63-.74,4.17-.74s2.94.25,4.19.74c1.25.49,2.32,1.19,3.2,2.09.88.9,1.57,1.99,2.05,3.26.48,1.28.72,2.7.72,4.27s-.24,2.98-.72,4.25c-.48,1.26-1.16,2.35-2.05,3.24-.88.9-1.95,1.59-3.2,2.07-1.25.48-2.65.72-4.19.72s-2.93-.24-4.17-.72c-1.24-.48-2.3-1.17-3.19-2.07-.88-.9-1.57-1.98-2.05-3.24-.48-1.26-.72-2.68-.72-4.25s.24-2.99.72-4.27m4.89,6.56c.15.74.41,1.42.78,2.01.37.59.85,1.07,1.46,1.42.61.35,1.36.53,2.27.53s1.68-.18,2.3-.53c.62-.35,1.11-.83,1.48-1.42.37-.59.62-1.26.78-2.01.15-.75.23-1.51.23-2.3s-.07-1.55-.23-2.31c-.15-.76-.41-1.43-.78-2.01-.37-.58-.86-1.05-1.48-1.42-.62-.37-1.38-.55-2.3-.55s-1.67.18-2.27.55c-.61.37-1.09.84-1.46,1.42-.37.58-.62,1.25-.78,2.01-.15.76-.23,1.53-.23,2.31s.08,1.55.23,2.3Z"/>
      <path class="cls-3" d="m140.85,31.97v3.6h-3.94v9.71c0,.91.15,1.52.45,1.82.3.3.91.45,1.82.45.3,0,.59-.01.87-.04.28-.03.54-.06.8-.11v4.17c-.46.08-.96.13-1.52.15-.56.03-1.1.04-1.63.04-.83,0-1.62-.06-2.37-.17-.74-.11-1.4-.33-1.97-.66-.57-.33-1.02-.8-1.34-1.4-.33-.61-.49-1.4-.49-2.39v-11.57h-3.26v-3.6h3.26v-5.88h5.39v5.88h3.94"/>
      <path class="cls-3" d="m143.2,38c.08-1.26.39-2.31.95-3.15s1.26-1.5,2.12-2.01c.86-.5,1.83-.86,2.9-1.08,1.08-.21,2.16-.32,3.24-.32.99,0,1.98.07,3,.21,1.01.14,1.93.41,2.77.81.83.4,1.52.97,2.05,1.69.53.72.79,1.67.79,2.86v10.2c0,.88.05,1.73.15,2.54.1.81.28,1.42.53,1.82h-5.46c-.1-.3-.18-.61-.25-.93s-.11-.64-.13-.97c-.86.89-1.87,1.5-3.03,1.86-1.16.35-2.35.53-3.57.53-.93,0-1.81-.11-2.62-.34-.81-.23-1.52-.58-2.12-1.06-.61-.48-1.08-1.09-1.42-1.82-.34-.73-.51-1.61-.51-2.62,0-1.11.2-2.03.59-2.75.39-.72.9-1.29,1.52-1.73.62-.43,1.33-.75,2.12-.97.8-.21,1.6-.38,2.41-.51.81-.13,1.61-.23,2.39-.3.78-.08,1.48-.19,2.09-.34.61-.15,1.09-.37,1.44-.66.35-.29.52-.71.49-1.27,0-.58-.09-1.04-.28-1.39-.19-.34-.44-.61-.76-.8-.32-.19-.68-.32-1.1-.38-.42-.06-.87-.09-1.34-.09-1.06,0-1.9.23-2.5.68-.61.46-.96,1.21-1.06,2.28h-5.39m12.44,3.98c-.23.2-.51.36-.85.47-.34.11-.71.21-1.1.28-.39.08-.8.14-1.23.19-.43.05-.86.11-1.29.19-.41.08-.8.18-1.19.3-.39.13-.73.3-1.03.51-.29.22-.52.49-.7.82-.18.33-.27.75-.27,1.25s.09.89.27,1.21c.18.33.42.59.72.78.3.19.66.32,1.06.4.4.08.82.11,1.25.11,1.06,0,1.88-.18,2.47-.53.58-.35,1.01-.78,1.29-1.27.28-.49.45-.99.51-1.5.06-.5.09-.91.09-1.21v-2.01Z"/>
      <rect class="cls-3" x="165.34" y="24.5" width="5.39" height="27.08"/>
      <path class="cls-3" d="m191.02,24.5c1.7,0,3.13.25,4.32.74,1.19.49,2.15,1.14,2.9,1.95.74.81,1.29,1.73,1.63,2.77.34,1.04.51,2.11.51,3.22s-.17,2.16-.51,3.2c-.34,1.05-.88,1.98-1.63,2.79-.75.81-1.71,1.46-2.9,1.95-1.19.49-2.63.74-4.32.74h-6.26v9.71h-5.95v-27.08h12.21m-1.63,12.74c.68,0,1.34-.05,1.97-.15.63-.1,1.19-.3,1.67-.59.48-.29.86-.7,1.16-1.23.29-.53.44-1.23.44-2.09s-.15-1.55-.44-2.09c-.29-.53-.68-.94-1.16-1.23-.48-.29-1.04-.49-1.67-.59-.63-.1-1.29-.15-1.97-.15h-4.63v8.12h4.63Z"/>
      <path class="cls-3" d="m208.65,31.97v3.64h.08c.25-.61.59-1.17,1.02-1.69.43-.52.92-.96,1.48-1.33.56-.37,1.15-.65,1.78-.85.63-.2,1.29-.3,1.97-.3.35,0,.74.06,1.18.19v5.01c-.25-.05-.56-.09-.91-.13-.35-.04-.7-.06-1.02-.06-.98,0-1.82.16-2.5.49-.68.33-1.23.78-1.65,1.35-.42.57-.71,1.23-.89,1.99-.18.76-.27,1.58-.27,2.47v8.84h-5.38v-19.61h5.12"/>
      <path class="cls-3" d="m223.82,28.93h-5.39v-4.44h5.39v4.44Zm-5.39,3.03h5.39v19.61h-5.39v-19.61Z"/>
      <path class="cls-3" d="m233.3,31.97v2.66h.08c.71-1.01,1.56-1.8,2.56-2.35,1-.56,2.14-.83,3.43-.83s2.37.24,3.39.72c1.02.48,1.8,1.33,2.33,2.54.58-.86,1.37-1.62,2.37-2.28,1-.66,2.18-.99,3.55-.99,1.04,0,2,.13,2.88.38.89.25,1.64.66,2.28,1.21.63.56,1.12,1.28,1.48,2.18.35.9.53,1.98.53,3.24v13.12h-5.39v-11.11c0-.66-.03-1.28-.08-1.86-.05-.58-.19-1.09-.42-1.52-.23-.43-.56-.77-1-1.02-.44-.25-1.04-.38-1.8-.38s-1.37.15-1.84.44c-.47.29-.83.67-1.1,1.14-.27.47-.44,1-.53,1.59-.09.59-.13,1.19-.13,1.8v10.92h-5.39v-11c0-.58-.01-1.16-.04-1.73-.03-.57-.13-1.09-.32-1.57-.19-.48-.51-.86-.95-1.16-.44-.29-1.09-.44-1.95-.44-.25,0-.59.06-1.01.17-.42.11-.82.33-1.21.64-.39.32-.73.77-1.01,1.37-.28.59-.42,1.37-.42,2.33v11.38h-5.39v-19.61h5.08"/>
      <path class="cls-3" d="m268.19,46.87c.81.78,1.97,1.18,3.49,1.18,1.09,0,2.02-.27,2.81-.82.78-.54,1.26-1.12,1.44-1.72h4.74c-.76,2.35-1.92,4.03-3.49,5.04-1.57,1.01-3.46,1.52-5.69,1.52-1.54,0-2.93-.25-4.17-.74-1.24-.49-2.29-1.19-3.15-2.11-.86-.91-1.52-2-1.99-3.26-.47-1.26-.7-2.66-.7-4.17s.24-2.83.72-4.09c.48-1.26,1.16-2.36,2.05-3.28.88-.92,1.94-1.65,3.17-2.18,1.23-.53,2.59-.8,4.08-.8,1.67,0,3.12.32,4.36.97,1.24.64,2.26,1.51,3.05,2.6.8,1.09,1.37,2.33,1.73,3.72.35,1.39.48,2.84.38,4.36h-14.15c.08,1.74.52,3.01,1.33,3.79m6.09-10.31c-.65-.71-1.63-1.06-2.94-1.06-.86,0-1.57.15-2.14.44-.57.29-1.02.65-1.36,1.08-.34.43-.58.89-.72,1.36-.14.48-.22.91-.25,1.29h8.76c-.25-1.36-.7-2.4-1.35-3.11Z"/>
    </g>
  </g>
</svg>